# xmcd
#
# Track frame offsets:
#	150
#	11244
#	24204
#	37063
#	48449
#	68410
#	80501
#	100074
#	110615
#	125166
#	138841
#	149135
#	163681
#	174826
#	188645
#
# Disc length: 2940 seconds
# Revision: 1
# Processed by: cddbd v1.5.2PL0 Copyright (c) Steve Scherf et al.
# Submitted via: dBpowerAMP V12.0
#
DISCID=ca0b7a0f
DTITLE=Various Artist - Uncut - Jack White's Blues
DYEAR=2012
DGENRE=Blues
TTITLE0=Little Willie John - I'm Shakin
TTITLE1=Blind Willie McTell - Lord, Send Me an Angel
TTITLE2=Howlin' Wolf - I Ain't Superstitious
TTITLE3=Son House - John the Revelator
TTITLE4=Blanche - Who's to Say
TTITLE5=Josh White - St James Infirmary
TTITLE6=Son House - Death Letter Blues
TTITLE7=Hank Williams - Tennessee Border
TTITLE8=Blind Willie McTell - Southern Can Is Mine
TTITLE9=Marlene Dietrich - Look Me Over Closely
TTITLE10=Robert Johnson - Stop Breakin' Down Blues
TTITLE11=Soledad Brothers - St Ides of March
TTITLE12=Patti Page - Conquest
TTITLE13=Leadbelly - Boll Weevil
TTITLE14=Terry Reid - Rich Kid Blues/To Be Alone With You
EXTD=
EXTT0=
EXTT1=
EXTT2=
EXTT3=
EXTT4=
EXTT5=
EXTT6=
EXTT7=
EXTT8=
EXTT9=
EXTT10=
EXTT11=
EXTT12=
EXTT13=
EXTT14=
PLAYORDER=
